<svg width="10" height="17" viewBox="0 0 10 17" fill="none" xmlns="http://www.w3.org/2000/svg">
<path d="M9.5 2.83333H6.5C5.9477 2.83333 5.5 3.25618 5.5 3.77778V6.61111H9.5C9.6137 6.60873 9.7216 6.65871 9.7892 6.74513C9.8568 6.83154 9.8758 6.94356 9.84 7.04556L9.1 9.12333C9.0318 9.31402 8.8431 9.44293 8.63 9.44444H5.5V16.5278C5.5 16.7885 5.2761 17 5 17H2.5C2.22386 17 2 16.7885 2 16.5278V9.44444H0.5C0.22386 9.44444 0 9.23298 0 8.97222V7.08333C0 6.82257 0.22386 6.61111 0.5 6.61111H2V3.77778C2 1.69137 3.7909 0 6 0H9.5C9.7761 0 10 0.211423 10 0.472222V2.36111C10 2.62191 9.7761 2.83333 9.5 2.83333Z" fill="white"/>
</svg>
