<svg width="10" height="19" viewBox="0 0 10 19" fill="none" xmlns="http://www.w3.org/2000/svg">
<path d="M9.5 3.16667H6.5C5.9477 3.16667 5.5 3.63926 5.5 4.22222V7.38889H9.5C9.6137 7.38623 9.7216 7.44209 9.7892 7.53867C9.8568 7.63526 9.8758 7.76044 9.84 7.87444L9.1 10.1967C9.0318 10.4098 8.8431 10.5539 8.63 10.5556H5.5V18.4722C5.5 18.7637 5.2761 19 5 19H2.5C2.22386 19 2 18.7637 2 18.4722V10.5556H0.5C0.22386 10.5556 0 10.3192 0 10.0278V7.91667C0 7.62523 0.22386 7.38889 0.5 7.38889H2V4.22222C2 1.89035 3.7909 0 6 0H9.5C9.7761 0 10 0.236297 10 0.527778V2.63889C10 2.93037 9.7761 3.16667 9.5 3.16667Z" fill="#312D2C"/>
</svg>
