<svg width="20" height="21" viewBox="0 0 20 21" fill="none" xmlns="http://www.w3.org/2000/svg">
<path fill-rule="evenodd" clip-rule="evenodd" d="M6.25 0.5H13.75C17.2013 0.5 20 3.29875 20 6.75V14.25C20 17.7013 17.2013 20.5 13.75 20.5H6.25C2.79875 20.5 0 17.7013 0 14.25V6.75C0 3.29875 2.79875 0.5 6.25 0.5ZM13.75 18.625C16.1625 18.625 18.125 16.6625 18.125 14.25V6.75C18.125 4.3375 16.1625 2.375 13.75 2.375H6.25C3.8375 2.375 1.875 4.3375 1.875 6.75V14.25C1.875 16.6625 3.8375 18.625 6.25 18.625H13.75Z" fill="#312D2C"/>
<path fill-rule="evenodd" clip-rule="evenodd" d="M5 10.5C5 7.73875 7.23875 5.5 10 5.5C12.7613 5.5 15 7.73875 15 10.5C15 13.2613 12.7613 15.5 10 15.5C7.23875 15.5 5 13.2613 5 10.5ZM6.875 10.5C6.875 12.2225 8.2775 13.625 10 13.625C11.7225 13.625 13.125 12.2225 13.125 10.5C13.125 8.77625 11.7225 7.375 10 7.375C8.2775 7.375 6.875 8.77625 6.875 10.5Z" fill="#312D2C"/>
<circle cx="15.3752" cy="5.12523" r="0.66625" fill="#312D2C"/>
</svg>
