<svg width="20" height="20" viewBox="0 0 20 20" fill="none" xmlns="http://www.w3.org/2000/svg">
<path d="M10.0002 0C4.47765 0 0 4.47644 0 10.0002C0 14.0945 2.46218 17.6121 5.9855 19.159C5.95748 18.4601 5.98063 17.6227 6.15972 16.8629C6.3518 16.0507 7.44624 11.4138 7.44624 11.4138C7.44624 11.4138 7.12664 10.7754 7.12664 9.83167C7.12664 8.35022 7.98554 7.2436 9.05521 7.2436C9.96487 7.2436 10.4043 7.92666 10.4043 8.74414C10.4043 9.65867 9.82071 11.026 9.52101 12.2926C9.27085 13.3538 10.053 14.2192 11.0995 14.2192C12.994 14.2192 14.2703 11.7858 14.2703 8.90252C14.2703 6.7108 12.7942 5.07015 10.1094 5.07015C7.07588 5.07015 5.1863 7.33213 5.1863 9.85888C5.1863 10.7304 5.44336 11.3444 5.8458 11.8203C6.03058 12.0384 6.05657 12.1265 5.98956 12.3771C5.94164 12.5611 5.83159 13.0045 5.78611 13.18C5.71951 13.4338 5.51443 13.5243 5.28539 13.4305C3.8884 12.8604 3.23743 11.3302 3.23743 9.60994C3.23743 6.76968 5.63301 3.36332 10.3844 3.36332C14.2017 3.36332 16.7147 6.12642 16.7147 9.09216C16.7147 13.0143 14.5343 15.9451 11.3196 15.9451C10.2398 15.9451 9.22415 15.3611 8.87652 14.6992C8.87652 14.6992 8.2958 17.0034 8.17316 17.4477C7.96118 18.2193 7.54574 18.9896 7.16644 19.5898C8.06595 19.8554 9.01582 20 10.0006 20C15.5228 20 20 15.5236 20 10.0006C19.9996 4.47644 15.5219 0 10.0002 0Z" fill="white"/>
</svg>
