<svg width="48" height="58" viewBox="0 0 48 58" fill="none" xmlns="http://www.w3.org/2000/svg">
<path d="M48 43.72V43.68V43.64V43.6C48 43.56 48 43.56 48 43.52C48 43.48 48 43.48 48 43.44L46.28 27.16V27.12C46.28 27.08 46.28 27.08 46.28 27.04V27C46.28 27 46.28 27 46.28 26.96C46.28 26.96 46.28 26.92 46.24 26.92L46.2 26.88C46.2 26.88 46.2 26.88 46.2 26.84L24.48 0.67998C24.44 0.63998 24.44 0.63998 24.4 0.59998L24.36 0.559981C24.32 0.559981 24.32 0.51998 24.28 0.51998C24.24 0.51998 24.24 0.51998 24.24 0.47998C24.24 0.47998 24.24 0.47998 24.2 0.47998C24.16 0.47998 24.12 0.47998 24.12 0.47998C24.08 0.47998 24.08 0.47998 24.04 0.47998C24 0.47998 24 0.47998 23.96 0.47998C23.92 0.47998 23.88 0.47998 23.88 0.47998C23.88 0.47998 23.88 0.47998 23.84 0.47998C23.84 0.47998 23.8 0.47998 23.8 0.51998C23.76 0.51998 23.76 0.559981 23.72 0.559981L23.68 0.59998C23.64 0.63998 23.64 0.63998 23.6 0.67998L1.84 26.84C1.8 26.88 1.76 26.92 1.76 26.96V27C1.76 27.04 1.72 27.08 1.72 27.12V27.16L0 43.44V43.64V43.68C0.04 43.76 0.0400003 43.8 0.0800003 43.88L10.52 57.32C10.6 57.44 10.72 57.48 10.84 57.52H10.88H11H37C37.2 57.52 37.36 57.44 37.48 57.28L47.92 43.84C47.92 43.8 47.96 43.8 47.96 43.76C47.96 43.76 47.96 43.76 48 43.72ZM16.8 48.12L11.12 40.8L12.08 31.84L24 17.48L35.92 31.84L36.88 40.8L31.2 48.12H16.8ZM37.4 34.4L37.16 31.96L45.2 28.12L46.72 42.72L38.04 40.52L37.4 34.4ZM44.76 27L36.68 30.88L24.6 16.36V2.75998L44.76 27ZM23.4 16.32L11.32 30.84L3.24 27L23.4 2.71998V16.32ZM9.96 40.52L1.28 42.72L2.8 28.12L10.84 31.96L9.96 40.52ZM10.28 41.68L15.8 48.76L11 55.92L4.36 47.4L1.6 43.84L10.28 41.68ZM16.84 49.32H31.2L35.92 56.32H12.12L16.84 49.32ZM37.04 55.92L32.24 48.76L37.76 41.68L46.4 43.88L43.64 47.44L37.04 55.92Z" fill="#777372"/>
</svg>
