<svg width="52" height="46" viewBox="0 0 52 46" fill="none" xmlns="http://www.w3.org/2000/svg">
<path d="M12.8121 0.660912L0.0715763 22.7421C0.0357883 22.7779 0.035788 22.8137 0 22.8853V22.9926V23.0284V23.0642V23.1716C0 23.2074 0.0357883 23.2432 0.0715763 23.3147L12.8121 45.3959C12.8479 45.4317 12.8479 45.4675 12.8837 45.5033C12.9553 45.5749 13.0268 45.6107 13.1342 45.6465C13.17 45.6465 13.2416 45.6822 13.2774 45.6822H38.7584C38.7942 45.6822 38.8658 45.6822 38.9016 45.6465C38.9374 45.6465 38.9374 45.6465 38.9732 45.6107C39.0089 45.6107 39.0089 45.6107 39.0447 45.5749C39.0805 45.5749 39.0805 45.5391 39.1163 45.5391L39.1521 45.5033C39.1879 45.4675 39.2237 45.4317 39.2237 45.3959L51.9642 23.3147C52 23.2789 52 23.2432 52 23.2074C52 23.1716 52 23.2074 52 23.1716C52 23.1716 52 23.1716 52 23.1358V23.1V23.0642V23.0284V22.9926V22.9569V22.9211V22.8853V22.8495L39.2595 0.768278L39.2237 0.732489C39.2237 0.696701 39.1879 0.696701 39.1879 0.660912C39.1879 0.625124 39.1879 0.660913 39.1521 0.625125C39.1521 0.625125 39.1163 0.625126 39.1163 0.589338C39.0805 0.589338 39.0805 0.553549 39.0447 0.553549C39.0447 0.553549 39.0089 0.553549 39.0089 0.517761H38.9732C38.9732 0.517761 38.9732 0.517761 38.9374 0.517761C38.9016 0.517761 38.9016 0.517761 38.8658 0.517761H38.83C38.83 0.517761 38.83 0.517761 38.7942 0.517761H13.2774C13.2416 0.517761 13.17 0.517761 13.1342 0.553549C13.1342 0.553549 13.1342 0.553549 13.0984 0.553549C13.0984 0.553549 13.0626 0.55355 13.0626 0.589338C13.0268 0.589338 12.9911 0.625125 12.9553 0.625125L12.9195 0.660912C12.9195 0.660912 12.8837 0.660913 12.8837 0.696701C12.8837 0.696701 12.8479 0.73249 12.8479 0.768278C12.8479 0.625126 12.8479 0.625124 12.8121 0.660912C12.8121 0.660912 12.8121 0.625124 12.8121 0.660912ZM13.8142 1.84192L24.9443 8.28376L13.8142 14.7256V1.84192ZM47.276 24.8178L39.2952 29.4345V16.5508L50.4253 22.9926L47.276 24.8178ZM38.2216 44.1434L27.0915 37.7015L38.2216 31.2597V44.1434ZM24.9443 37.7015L13.8142 44.1434V31.2955L24.9443 37.7015ZM38.2216 30.0429L26.0179 37.0931L13.8142 30.0429V15.9424L26.0179 8.89216L38.2216 15.9424V30.0429ZM12.7405 29.4345L1.61046 22.9926L12.7405 16.5508V29.4345ZM38.2216 14.6898L27.0915 8.24797L38.2216 1.80613V14.6898ZM12.7405 15.334L2.00413 21.5253L12.7405 2.91556V15.334ZM12.7405 30.6513V43.0339L2.00413 24.4242L12.7405 30.6513ZM26.0179 38.3099L36.7543 44.5012H15.2815L26.0179 38.3099ZM39.2952 30.6513L50.0317 24.4599L44.6635 33.7648L39.2952 43.0697V30.6513ZM50.0317 21.5253L39.2952 15.334V2.91556L48.7433 19.2707L50.0317 21.5253ZM36.7543 1.44825L26.0179 7.63958L15.2815 1.44825H36.7543Z" fill="#777372"/>
</svg>
