<svg width="52" height="46" viewBox="0 0 52 46" fill="none" xmlns="http://www.w3.org/2000/svg">
<path d="M52.3 44.8999V44.8666C52.3 44.8666 52.3 44.8666 52.3 44.8333V44.7999C52.3 44.7666 52.2667 44.7666 52.2667 44.7333C52.2667 44.7333 52.2667 44.7333 52.2667 44.6999L26.6 0.533251C26.6 0.533251 26.6 0.533252 26.6 0.499919C26.6 0.466585 26.5667 0.466585 26.5667 0.433252C26.5667 0.399918 26.5667 0.433252 26.5333 0.399919H26.5C26.5 0.399919 26.4667 0.399918 26.4667 0.366585C26.4667 0.333251 26.4333 0.366585 26.4333 0.333252C26.4333 0.333252 26.4333 0.333252 26.4 0.333252C26.3667 0.333252 26.4 0.333252 26.3667 0.333252C26.3333 0.333252 26.3333 0.333252 26.3 0.333252H26.2667C26.2667 0.333252 26.2667 0.333252 26.2333 0.333252C26.2 0.333252 26.2 0.333252 26.1667 0.333252H26.1333C26.1333 0.333252 26.1333 0.333252 26.1 0.333252H26.0667C26.0667 0.333252 26.0667 0.333252 26.0333 0.333252C26 0.333252 26 0.333251 26 0.366585C26 0.366585 25.9667 0.366586 25.9667 0.399919C25.9667 0.433252 25.9667 0.399918 25.9333 0.433252V0.466586L25.9 0.499919L0.0333335 44.6666V44.6999C0.0333335 44.7333 0 44.7666 0 44.7999V44.8333V44.8666V44.9666V44.9999V45.0333V45.0666C0 45.0999 0.0333335 45.1666 0.0333335 45.1999V45.2333L0.0666663 45.2666L0.0999997 45.2999L0.133333 45.3333L0.166667 45.3666C0.166667 45.3666 0.2 45.3666 0.2 45.3999H0.233333H0.266666H0.3H0.366667H0.4H51.7333H51.8333H51.8667H51.9C51.9 45.3999 51.9333 45.3999 51.9333 45.3666H51.9667H52C52 45.3666 52 45.3666 52.0333 45.3333C52.0333 45.3333 52.0333 45.3333 52.0667 45.2999C52.0667 45.2999 52.0667 45.2999 52.1 45.2666V45.2333C52.1 45.1999 52.1333 45.1999 52.1333 45.1666V45.1333C52.3 44.9333 52.3 44.9333 52.3 44.8999ZM26.6333 5.96659L30.7333 26.9999L26.6333 29.3333V5.96659ZM47.5 41.8666L27.1333 30.1999L31.2 27.8666L37.7333 33.4999L47.5 41.8666ZM25.6333 29.2666L21.6 26.6333L25.6333 5.96659V29.2666ZM21.3 27.6333L25.1667 30.1666L4.76667 41.8666L21.3 27.6333ZM26.6333 35.7333V31.0666L47 42.7333L26.6333 35.7333ZM49.8667 42.5999L35.5667 30.2999L31.7333 26.9999L28.3 9.26659L27.2 3.59992L30.1 8.56659L49.8667 42.5999ZM20.5667 26.7666L20.5333 26.9666L2.4 42.5666L25.0667 3.53325L20.5667 26.7666ZM25.6333 31.0666V35.7333L5.26667 42.7333L25.6333 31.0666ZM26.1333 36.6333L48.8 44.4333H3.46667L26.1333 36.6333Z" fill="#777372"/>
</svg>
