<svg width="51" height="52" viewBox="0 0 51 52" fill="none" xmlns="http://www.w3.org/2000/svg">
<path d="M50.6875 8.57311C50.6875 8.53246 50.6875 8.53246 50.6468 8.49182C50.6468 8.45117 50.6062 8.45117 50.6062 8.41052C50.6062 8.41052 50.6062 8.41052 50.6062 8.36987C50.5655 8.32923 50.5655 8.28858 50.5249 8.28858L42.9644 0.72814L42.9238 0.687493L42.8831 0.646845C42.8425 0.646845 42.8425 0.606198 42.8018 0.606198C42.8018 0.606198 42.7612 0.606198 42.7612 0.565551H42.7205C42.6799 0.565551 42.6799 0.56555 42.6392 0.524902C42.5986 0.524902 42.5579 0.524902 42.5579 0.524902H8.08885C8.04821 0.524902 8.00756 0.524902 7.96691 0.524902C7.92626 0.524902 7.92626 0.524903 7.88562 0.565551H7.84497C7.84497 0.565551 7.80432 0.56555 7.80432 0.606198C7.76368 0.606198 7.76367 0.646845 7.76367 0.646845L7.72303 0.687493L7.68238 0.72814L0.121942 8.28858C0.0812947 8.32923 0.0812944 8.36987 0.0406469 8.36987V8.41052C0.0406469 8.45117 0 8.45117 0 8.49182V8.53246V8.57311V8.61376V8.65441V8.69505V43.1235C0 43.1642 -6.20838e-07 43.2048 0.0406469 43.2861V43.3267C0.0406469 43.3674 0.0812953 43.408 0.0812953 43.4487V43.4893C0.121943 43.53 0.121942 43.5706 0.162589 43.6113L7.72303 51.1717L7.76367 51.2124L7.80432 51.253C7.84497 51.2937 7.88562 51.2937 7.96691 51.3343H8.00756C8.04821 51.3343 8.1295 51.3749 8.17015 51.3749C8.2108 51.3749 8.17015 51.3749 8.17015 51.3749H42.5986C42.6392 51.3749 42.7205 51.3749 42.7612 51.3343H42.8018C42.8425 51.3343 42.9238 51.2937 42.9644 51.253C43.0051 51.2124 43.0051 51.2124 43.0051 51.2124L43.0457 51.1717L50.6062 43.6113C50.6468 43.5706 50.6468 43.53 50.6875 43.4893V43.4487C50.6875 43.408 50.7281 43.3674 50.7281 43.3267V43.2861C50.7281 43.2454 50.7687 43.2048 50.7687 43.1235V8.7357V8.69505V8.65441C50.6875 8.61376 50.6875 8.61376 50.6875 8.57311ZM42.6392 49.7897L39.4281 45.1559L44.5497 40.0343L49.1835 43.2454L42.6392 49.7897ZM1.50396 43.2454L6.13777 40.0343L11.2594 45.1559L8.04821 49.7897L1.50396 43.2454ZM35.3633 40.1562H15.2835L11.1374 36.0102V15.9303L15.2835 11.7843H35.3633L39.5094 15.9303V36.0102L35.3633 40.1562ZM10.4464 14.8735L7.11332 12.5566L11.9097 7.76016L14.2266 11.0933L10.4464 14.8735ZM6.78814 13.8166L9.91799 15.971V35.8882L6.78814 38.0426V13.8166ZM43.8587 13.8166V38.0832L40.7288 35.9289V16.0116L43.8587 13.8166ZM43.5335 12.5566L40.2004 14.8735L36.4202 11.0933L38.7371 7.76016L43.5335 12.5566ZM39.4281 6.74397L42.6392 2.11016L49.1835 8.65441L44.5497 11.8656L39.4281 6.74397ZM35.282 10.5242H15.3648L13.2104 7.39433H37.477L35.282 10.5242ZM6.09713 11.8656L1.46331 8.65441L8.00756 2.11016L11.2187 6.74397L6.09713 11.8656ZM5.56871 38.9368L1.13813 41.9854V9.87383L5.56871 12.9224V38.9368ZM10.4464 37.0264L14.2266 40.8066L12.0723 43.8958L11.9097 44.1397L7.11332 39.3433L10.4464 37.0264ZM15.3648 41.3757H35.282L37.4364 44.5055H13.1698L15.3648 41.3757ZM38.6964 44.1803L38.5338 43.9365L36.3795 40.8472L40.1597 37.067L43.4928 39.3839L38.6964 44.1803ZM38.3306 6.17491H12.3162L9.26763 1.74433H41.3792L38.3306 6.17491ZM12.3162 45.7249H38.3306L41.3792 50.1555H9.26763L12.3162 45.7249ZM49.5087 42.026L45.0781 38.9775V12.963L49.5087 9.91448V42.026Z" fill="#777372"/>
</svg>
