<svg width="52" height="52" viewBox="0 0 52 52" fill="none" xmlns="http://www.w3.org/2000/svg">
<path d="M51.5333 21.4001C51.5333 21.3667 51.5333 21.3334 51.5 21.3001V21.2667V21.2334C51.5 21.2001 51.4667 21.2001 51.4667 21.1667C51.4667 21.1667 51.4667 21.1667 51.4667 21.1334C51.4667 21.1001 51.4333 21.1001 51.4333 21.1001L30.7333 0.400049L30.7 0.366716C30.7 0.366716 30.7 0.366716 30.6667 0.366716C30.6333 0.366716 30.6333 0.333382 30.6 0.333382H30.5667H30.5333C30.5 0.333382 30.4667 0.333382 30.4333 0.300049H30.4C30.4 0.300049 30.4 0.300049 30.3667 0.300049H21.2667C21.2333 0.300049 21.1667 0.300049 21.1333 0.333382H21.1C21.0667 0.333382 21.0333 0.366716 20.9667 0.400049C20.9667 0.400049 20.9667 0.400049 20.9333 0.400049C20.9 0.400049 20.9 0.433382 20.9 0.433382L0.133333 21.1667C0.133333 21.1667 0.0999998 21.2001 0.0999998 21.2334V21.2667C0.0666664 21.3001 0.0666662 21.3334 0.0333328 21.4001V21.4334C0.0333328 21.4667 0 21.5334 0 21.5667V30.6667C0 30.7001 -5.09123e-07 30.7667 0.0333328 30.8001V30.8334C0.0333328 30.8667 0.0666664 30.9001 0.0999998 30.9334V30.9667C0.133333 31.0001 0.133333 31.0334 0.166667 31.0667C0.2 31.1001 0.2 31.1001 0.2 31.1001C0.233333 31.1334 0.266667 31.1334 0.3 31.1334H0.333333H0.366666H0.4L20.9 51.6334L20.9333 51.6667H20.9667C21 51.7001 21.0333 51.7001 21.1 51.7334H21.1333C21.1667 51.7334 21.2333 51.7667 21.2667 51.7667H30.3667C30.4 51.7667 30.4667 51.7667 30.5 51.7334H30.5333H30.5667C30.6 51.7334 30.6333 51.7001 30.6667 51.6667H30.7C30.7333 51.6667 30.7333 51.6334 30.7333 51.6334L51.4333 30.9334L51.4667 30.9001C51.4667 30.9001 51.4667 30.9001 51.4667 30.8667C51.4667 30.8334 51.5 30.8334 51.5 30.8001V30.7667V30.7334C51.5 30.7001 51.5 30.6667 51.5333 30.6334V30.6001C51.5333 30.6001 51.5333 30.6001 51.5333 30.5667V21.4667C51.5333 21.4334 51.5333 21.4334 51.5333 21.4001ZM1.2 30.5001L4 26.7667L25.0333 47.8001L21.3 50.6001L1.2 30.5001ZM21.3 1.43338L25.0333 4.23338L4 25.2667L1.16667 21.5667L21.3 1.43338ZM48.6 26.4667L48.2667 26.0001L50.5333 22.9667V26.0001V29.0334L48.6 26.4667ZM42.3667 25.5001L26.3 9.43338V5.36672L46.4333 25.5001H42.3667ZM25.3 9.43338L9.23333 25.5001H5.16667L25.3 5.36672V9.43338ZM9.23333 26.5001L25.3 42.5667V46.6334L5.16667 26.5001H9.23333ZM10.1667 26.0001L25.8 10.3667L41.4333 26.0001L25.8 41.6334L10.1667 26.0001ZM3.33333 26.0001L1 29.1001V22.9667L3.33333 26.0001ZM26.3 42.5667L42.3667 26.5001H46.4333L26.3 46.6334V42.5667ZM47.5667 25.2334L26.5333 4.20005L28.1 3.03338L30.2667 1.40005L50.3333 21.4667L47.5667 25.2334ZM28.8333 1.26672L25.8 3.53338L22.7667 1.26672H28.8333ZM25.8 48.4667L28.8333 50.7334H22.7667L25.8 48.4667ZM30.3 50.5667L28.2 49.0001L26.5667 47.7667L47.6 26.7334L50.4 30.4667L30.3 50.5667Z" fill="#777372"/>
</svg>
