<svg width="201" height="75" viewBox="0 0 201 75" fill="none" xmlns="http://www.w3.org/2000/svg">
<ellipse cx="114" cy="39.5" rx="12" ry="13.5" fill="#6AC7EC"/>
<path fill-rule="evenodd" clip-rule="evenodd" d="M95.7924 0.537663C87.9782 3.04762 82.4374 10.3282 81.8231 18.8938C81.7293 20.2023 81.5753 21.2299 81.4806 21.1777C78.0464 19.2778 75.4856 18.7407 72.1133 19.2131C66.3322 20.0228 61.992 22.685 58.9284 27.2999C53.5239 35.441 54.421 46.2198 60.8715 50.6504C63.2881 52.3104 65.3643 52.9236 68.6895 52.9598C71.4683 52.99 71.6289 52.9561 73.8519 51.8707C76.4621 50.5964 79.7776 47.5301 80.7834 45.4595L81.3725 44.2469L81.5211 46.632C81.614 48.1272 81.8893 49.5141 82.2584 50.3499C83.8149 53.8737 87.679 53.5722 89.886 49.7548C90.0016 49.5546 89.6175 49.7163 89.0325 50.1138C88.4474 50.5113 87.7335 50.8368 87.4461 50.8368C86.6417 50.8368 85.7953 49.7295 85.6031 48.4253C85.5073 47.7771 85.479 39.4272 85.54 29.8702C85.6364 14.7717 85.7138 12.2577 86.1309 10.6932C87.1628 6.82045 88.7712 4.78181 91.5139 3.86962C92.75 3.45834 93.6652 3.39515 96.559 3.52009L100.094 3.67317V1.83644V0L98.7322 0.0155095C97.9827 0.0238387 96.66 0.258779 95.7924 0.537663ZM184.845 0.444606C179.039 2.03692 173.753 7.28057 171.686 13.499C170.442 17.24 170.366 18.5468 170.364 36.1171L170.361 52.8472H172.226H174.09L174.092 40.5689L174.095 28.2905L174.92 26.8544C176.726 23.7118 180.13 21.3023 183.706 20.6363C187.232 19.9797 190.583 21.8535 191.921 25.2297C192.539 26.791 192.571 27.3028 192.72 38.343C192.883 50.4352 192.88 50.4056 194.248 51.9095C195.604 53.401 198.379 52.996 200.029 51.0657C201.337 49.5348 201.324 49.2315 199.987 50.1397C198.699 51.0154 198 50.9511 197.206 49.8829C196.626 49.1017 196.598 48.6729 196.447 37.9636C196.31 28.3112 196.223 26.666 195.78 25.4184C193.546 19.1278 187.054 17.1759 180.279 20.7578C178.625 21.6326 175.638 24.2919 174.561 25.8492C174.086 26.5368 174.071 26.2866 174.216 19.9613C174.454 9.59149 175.537 6.30031 179.396 4.21112C180.428 3.65249 180.968 3.59131 184.773 3.60252L189.004 3.61487V1.80743V0L187.641 0.0255619C186.892 0.0399226 185.634 0.228335 184.845 0.444606ZM112.536 5.58687C112.332 6.11994 112.63 6.60591 113.161 6.60591C113.41 6.60591 113.574 6.32156 113.574 5.88787C113.574 5.09861 112.808 4.87659 112.536 5.58687ZM0 29.4477V52.9067L9.10602 52.776C17.2191 52.6597 18.4544 52.5796 20.4345 52.0402C24.5593 50.9166 28.1022 48.8087 31.027 45.7381C39.685 36.6481 39.7424 22.6244 31.1583 13.5726C28.0591 10.3046 24.5375 8.12096 20.314 6.84918C18.3821 6.26728 17.4755 6.20697 9.10602 6.10242L0 5.98868V29.4477ZM18.0709 7.98453C24.9224 10.2495 29.3888 14.8337 31.4185 21.6846C32.3586 24.8577 32.6827 30.3633 32.1332 33.826C30.694 42.8933 24.5183 49.4369 15.6882 51.2501C14.4578 51.5025 11.4569 51.7917 9.01997 51.8925L4.58886 52.0755V29.4534V6.83108L9.96643 6.95717C15.0492 7.07636 15.4934 7.13265 18.0709 7.98453ZM112.776 11.106C112.833 13.472 112.963 14.4925 113.216 14.5766C113.485 14.666 113.574 14.0533 113.574 12.1227C113.574 9.29537 113.356 7.75476 112.956 7.75476C112.81 7.75476 112.731 9.23362 112.776 11.106ZM43.9108 9.34448C42.0256 11.4946 43.3171 14.348 46.1754 14.348C49.0337 14.348 50.3251 11.4946 48.44 9.34448C47.6536 8.44752 47.3897 8.32919 46.1754 8.32919C44.9611 8.32919 44.6972 8.44752 43.9108 9.34448ZM105.574 11.4885C105.597 13.3353 106.262 17.0903 106.55 16.9993C106.706 16.9499 106.815 16.6914 106.791 16.4249C106.767 16.1583 106.661 14.9497 106.554 13.7388C106.447 12.5282 106.18 11.3004 105.961 11.0103C105.596 10.5287 105.563 10.5697 105.574 11.4885ZM120.084 11.4121C119.786 11.9346 119.575 17.2328 119.854 17.2328C120.36 17.2328 120.971 11.6626 120.497 11.3693C120.339 11.2717 120.154 11.2909 120.084 11.4121ZM98.4253 14.1453C98.4757 14.5005 98.6461 14.7915 98.8039 14.7915C98.9616 14.7915 99.132 14.5005 99.1824 14.1453C99.2452 13.7006 99.1274 13.499 98.8039 13.499C98.4803 13.499 98.3625 13.7006 98.4253 14.1453ZM126.767 14.0499C126.767 14.6878 127.134 15.1735 127.508 15.0299C128.146 14.7849 128.011 13.7862 127.341 13.7862C127.025 13.7862 126.767 13.9049 126.767 14.0499ZM99.0491 17.3764C99.2662 19.5026 99.7443 21.2538 100.108 21.2538C100.496 21.2538 100.448 20.4318 99.931 18.184C99.327 15.5581 98.8159 15.0902 99.0491 17.3764ZM112.936 21.1616L112.857 25.952L112.126 26.1476C111.724 26.255 110.664 26.4345 109.771 26.5463C107.841 26.7878 107.969 27.0337 107.455 22.1005C107.24 20.0314 106.988 18.8159 106.761 18.7401C106.307 18.5884 106.318 19.1939 106.834 22.9771C107.34 26.6798 107.355 27.2853 106.936 27.2853C106.755 27.2853 105.647 27.748 104.473 28.3135C103.299 28.8787 102.293 29.2958 102.237 29.2397C102.182 29.1837 101.858 27.7842 101.519 26.1292C101.18 24.4746 100.8 23.0124 100.674 22.8803C100.14 22.3173 100.178 23.3461 100.811 26.5353L101.485 29.9308L99.6083 31.6954C98.5761 32.6662 97.6199 33.5029 97.4831 33.5548C97.1527 33.6801 96.6895 32.6188 96.1165 30.4245C95.8581 29.4348 95.4858 28.5711 95.2894 28.5056C94.7614 28.3293 94.8425 28.8948 95.772 31.8637L96.6121 34.5466L95.3034 36.9707C94.0573 39.2784 94.0105 39.4476 94.3277 40.5077C94.8537 42.2654 97.3449 45.7442 99.5257 47.7662C101.783 49.8597 105.668 51.9747 108.699 52.7608C111.52 53.4923 116.802 53.4125 119.728 52.5936C125.454 50.991 130.559 46.8307 133.093 41.7031C133.985 39.8988 133.986 39.8893 133.507 38.6873C133.242 38.0239 132.521 36.7234 131.904 35.7971C131.287 34.8709 130.782 33.9009 130.782 33.6422C130.782 33.3831 131.041 32.2673 131.356 31.1626C132.013 28.8624 132.062 28.3422 131.605 28.4944C131.427 28.5542 131.028 29.4374 130.719 30.4572C130.41 31.4771 130.044 32.4293 129.907 32.5734C129.759 32.7282 129.146 32.3753 128.41 31.7118C127.724 31.0937 126.809 30.2921 126.376 29.9302C125.882 29.5178 125.644 29.0892 125.737 28.7814C126.032 27.806 126.495 23.2338 126.327 22.9604C125.957 22.3613 125.69 23.0581 125.358 25.4913C125.168 26.8843 124.92 28.1733 124.808 28.356C124.662 28.5927 123.919 28.4249 122.218 27.7712L119.832 26.8544L120.02 22.7315C120.173 19.3892 120.137 18.6321 119.831 18.7332C119.414 18.8711 119.099 20.9261 119.048 23.8387C119.001 26.5032 118.949 26.548 116.259 26.2458L114.004 25.9928L113.836 21.2538C113.743 18.6473 113.646 16.4826 113.621 16.443C113.595 16.4033 113.448 16.3712 113.294 16.3712C113.127 16.3712 112.983 18.2923 112.936 21.1616ZM126.651 17.3692C126.275 18.8711 126.114 21.541 126.4 21.541C126.558 21.541 126.769 20.8557 126.867 20.0179C126.965 19.1804 127.128 18.0818 127.229 17.5766C127.446 16.4898 126.919 16.3005 126.651 17.3692ZM149.281 19.2309C146.286 19.8872 143.745 21.6547 142.337 24.0604C141.782 25.0097 141.558 25.8598 141.461 27.3875C141.28 30.2303 141.706 31.5478 143.408 33.4124C145.142 35.3129 147.551 36.6053 153.681 38.924C160.563 41.5273 162.618 43.2101 162.618 46.2442C162.618 47.7044 162.083 48.7674 160.767 49.9249C159.212 51.292 157.028 51.842 153.153 51.842C150.033 51.842 149.75 51.792 147.904 50.9166C145.499 49.7761 142.95 47.306 141.727 44.9328L140.848 43.2256L140.834 47.1498L140.821 51.074L143.959 51.8253C154.552 54.3617 161.704 52.9455 164.211 47.8153C165.911 44.334 165.319 40.8256 162.623 38.4064C161.007 36.9572 158.825 35.8465 154.014 34.0244C149.327 32.25 147.358 31.2411 145.831 29.8311C143.618 27.7885 143.112 24.9924 144.57 22.8619C145.444 21.5835 146.745 20.7411 148.904 20.055C153.547 18.5795 158.432 20.6202 162.166 25.5947L163.478 27.3421V24.4269V21.5117L162.463 21.0869C158.769 19.5411 152.13 18.6065 149.281 19.2309ZM44.2274 34.2367C44.3094 48.9371 44.3244 49.2858 44.9312 50.601C46.2514 53.4613 49.2588 53.6351 51.5822 50.985C52.7375 49.6672 52.7501 49.1264 51.6026 50.0932C50.6951 50.858 50.289 50.9669 49.4891 50.6593C48.3732 50.2304 48.3307 49.7002 48.183 34.322L48.0396 19.3869L46.0916 19.3016L44.1437 19.2166L44.2274 34.2367ZM77.5549 20.4843C80.566 22.1645 81.4175 24.7434 81.6496 32.8859C81.8357 39.4189 81.5606 41.9432 80.3934 44.4118C79.2923 46.7405 76.9081 49.2014 74.6957 50.2919C72.9588 51.1481 72.7343 51.1872 70.2049 51.0677C67.0776 50.92 65.4259 50.2224 63.4424 48.2119C61.0677 45.8051 59.942 42.3956 59.942 37.6106C59.942 28.6587 64.8474 21.2595 71.7319 19.8266C73.5502 19.4484 76.2427 19.7525 77.5549 20.4843ZM92.6376 21.1102C92.6376 21.3471 92.8312 21.541 93.0678 21.541C93.3044 21.541 93.498 21.3471 93.498 21.1102C93.498 20.8732 93.3044 20.6794 93.0678 20.6794C92.8312 20.6794 92.6376 20.8732 92.6376 21.1102ZM132.79 21.3974C132.79 21.6608 132.929 21.8296 133.098 21.7731C133.268 21.7165 133.407 21.5476 133.407 21.3974C133.407 21.2472 133.268 21.0783 133.098 21.0217C132.929 20.9651 132.79 21.134 132.79 21.3974ZM93.319 23.1313C93.4119 23.374 93.6924 24.2764 93.942 25.1366C94.4261 26.8036 94.932 27.4464 94.932 26.394C94.932 25.2432 93.985 22.6898 93.5582 22.6898C93.3087 22.6898 93.2155 22.8616 93.319 23.1313ZM132.255 24.0176C131.71 26.1097 131.57 27.2853 131.868 27.2853C132.252 27.2853 133.101 23.4785 132.789 23.156C132.653 23.0153 132.417 23.3952 132.255 24.0176ZM120.608 28.2644C125.546 29.8268 130.228 33.7177 132.463 38.1161C133.288 39.7403 133.251 40.0691 132.001 42.2077C129.762 46.0403 125.257 49.7244 121.127 51.0996C116.889 52.5103 111.112 52.5075 106.859 51.0918C102.643 49.6882 97.817 45.6948 95.8334 41.967C94.6535 39.7497 94.7258 39.163 96.5091 36.4767C99.5908 31.8344 104.77 28.4496 110.133 27.5728C112.948 27.1124 118.026 27.4478 120.608 28.2644ZM67.1121 70.9213C67.1121 73.9999 66.1851 74.948 64.6171 73.4729C64.0825 72.97 63.8789 72.9169 63.595 73.2058C63.3122 73.4933 63.4037 73.7084 64.045 74.2647C65.0723 75.156 66.28 75.1577 67.3111 74.2696C68.0574 73.6268 68.1233 73.3968 68.2171 71.1103C68.3132 68.7632 68.2891 68.644 67.7152 68.644C67.1531 68.644 67.1121 68.7985 67.1121 70.9213ZM72.0497 71.7315L72.1311 74.8191L74.3538 74.9029C76.1719 74.9716 76.5766 74.9087 76.5766 74.5577C76.5766 74.2317 76.1452 74.1079 74.7841 74.043C72.9915 73.9574 72.9915 73.9574 72.9018 73.024C72.812 72.094 72.8169 72.0905 74.1207 72.0905C75.0927 72.0905 75.4294 71.9797 75.4294 71.6597C75.4294 71.3406 75.0947 71.2289 74.1387 71.2289C72.896 71.2289 72.8481 71.197 72.8481 70.3673V69.5056H74.7124C76.1782 69.5056 76.5766 69.4134 76.5766 69.0748C76.5766 68.7276 76.1294 68.644 74.2724 68.644H71.9682L72.0497 71.7315ZM80.0182 68.8729C80.0182 69.2928 81.1892 74.4819 81.3389 74.724C81.7818 75.4417 82.2989 74.761 82.9037 72.665C83.2686 71.4012 83.6718 70.3673 83.8003 70.3673C83.9285 70.3673 84.0335 70.5149 84.0335 70.6953C84.0335 70.8756 84.2993 71.9176 84.6246 73.0108C85.4795 75.8855 85.9579 75.6261 86.8069 71.8275C87.1745 70.182 87.4163 68.7767 87.3443 68.7043C87.0288 68.3886 86.3256 68.9708 86.3004 69.5685C86.2852 69.9287 86.1136 70.8699 85.9195 71.6597L85.5659 73.0958L84.899 70.8699C83.9976 67.8622 83.4885 67.8616 82.5974 70.8673C82.0849 72.5969 81.889 72.9637 81.7155 72.5188C81.5928 72.2043 81.4826 71.6884 81.4709 71.3725C81.4258 70.1857 80.8405 68.644 80.4349 68.644C80.2058 68.644 80.0182 68.7471 80.0182 68.8729ZM91.2036 71.8033V74.9627H93.498C95.3462 74.9627 95.7924 74.8788 95.7924 74.5319C95.7924 74.1932 95.394 74.101 93.9282 74.101H92.064V73.0958C92.064 72.1144 92.0912 72.0905 93.2112 72.0905C94.0398 72.0905 94.3584 71.9708 94.3584 71.6597C94.3584 71.3487 94.0398 71.2289 93.2112 71.2289C92.1319 71.2289 92.064 71.1786 92.064 70.381C92.064 69.5427 92.084 69.532 93.8338 69.4476C94.9294 69.3945 95.6484 69.2253 95.7219 69.003C95.8099 68.7356 95.2484 68.644 93.5218 68.644H91.2036V71.8033ZM99.5209 71.8154V74.9868L101.721 74.9029C103.162 74.8481 103.961 74.6953 104.039 74.46C104.126 74.1972 103.652 74.101 102.269 74.101H100.381V71.3725C100.381 69.1386 100.303 68.644 99.9511 68.644C99.5946 68.644 99.5209 69.188 99.5209 71.8154ZM107.613 71.7315L107.695 74.8191L109.917 74.9029C111.765 74.9727 112.14 74.9121 112.14 74.5439C112.14 74.1941 111.779 74.101 110.419 74.101H108.699V71.3725C108.699 68.8203 108.661 68.644 108.115 68.644C107.56 68.644 107.536 68.7916 107.613 71.7315ZM115.869 71.8033V74.9627H118.163C120.011 74.9627 120.458 74.8788 120.458 74.5319C120.458 74.1932 120.059 74.101 118.593 74.101H116.729V73.1122C116.729 72.1543 116.767 72.1207 117.948 72.0351C118.618 71.9866 119.167 71.8177 119.167 71.6597C119.167 71.5017 118.618 71.3329 117.948 71.2843C116.81 71.2016 116.729 71.1396 116.729 70.3509V69.5056H118.593C120.059 69.5056 120.458 69.4134 120.458 69.0748C120.458 68.7278 120.011 68.644 118.163 68.644H115.869V71.8033ZM124.186 71.8033C124.186 74.4201 124.26 74.9627 124.616 74.9627C124.935 74.9627 125.046 74.6275 125.046 73.6702C125.046 72.3996 125.062 72.3778 125.993 72.3778C126.831 72.3778 127.012 72.5262 127.567 73.6702C127.912 74.3811 128.389 74.9627 128.628 74.9627C129.186 74.9627 129.178 74.88 128.467 73.4847L127.872 72.3169L128.467 71.6824C129.202 70.8989 129.233 69.7503 128.537 69.1193C128.159 68.777 127.477 68.644 126.099 68.644H124.186V71.8033ZM131.93 68.7548C131.93 68.8157 132.437 69.6265 133.057 70.5565C133.862 71.7634 134.211 72.6156 134.276 73.5332C134.341 74.444 134.493 74.8191 134.798 74.8191C135.111 74.8191 135.253 74.4282 135.318 73.3859C135.376 72.4674 135.637 71.6419 136.046 71.0882C136.396 70.6125 136.907 69.8681 137.181 69.4338C137.662 68.6701 137.66 68.644 137.111 68.644C136.741 68.644 136.279 69.0946 135.786 69.9364C135.37 70.6473 134.925 71.2289 134.797 71.2289C134.669 71.2289 134.197 70.6476 133.749 69.937C133.29 69.2098 132.714 68.6448 132.432 68.6446C132.156 68.6443 131.93 68.694 131.93 68.7548ZM127.857 69.8503C128.31 70.3044 128.292 70.5232 127.751 71.0649C127.494 71.322 126.815 71.5161 126.173 71.5161C125.076 71.5161 125.046 71.4891 125.046 70.5109C125.046 69.518 125.061 69.5056 126.28 69.5056C126.958 69.5056 127.668 69.6607 127.857 69.8503Z" fill="white"/>
<path d="M109.343 37.8397C109.853 36.3222 111.451 34.5998 112.69 34.2332C113.909 33.8727 114.488 33.9165 115.698 34.4605C118.079 35.5307 119.44 38.44 118.871 41.2433C118.352 43.8019 116.943 45.4368 114.855 45.9026C111.121 46.7362 107.926 42.0625 109.343 37.8397Z" fill="#12130F"/>
<path d="M114.103 37.9599C114.256 37.5805 114.735 37.15 115.107 37.0583C115.473 36.9682 115.646 36.9791 116.009 37.1151C116.724 37.3827 117.132 38.11 116.961 38.8108C116.806 39.4505 116.383 39.8592 115.757 39.9757C114.636 40.1841 113.678 39.0156 114.103 37.9599Z" fill="white"/>
</svg>
